#N canvas 606 253 504 432 12;
#X obj 214 236 dac~;
#X obj 57 112 loadbang;
#X msg 58 207 \; pd dsp 1;
#X obj 213 178 *~ 0.6;
#X obj 213 116 osc~ 600;
#X obj 58 155 delay 10;
#X connect 1 0 5 0;
#X connect 3 0 0 0;
#X connect 3 0 0 1;
#X connect 4 0 3 0;
#X connect 5 0 2 0;
